<svg t="1719896657349" class="icon" viewBox="0 0 1024 1024" version="1.1" xmlns="http://www.w3.org/2000/svg" p-id="6026" width="16" height="16"><path d="M945.474316 870.497524a54.174476 54.174476 0 1 1 0 108.397714 54.174476 54.174476 0 0 1 0-108.397714z m-130.194286-45.104762a46.32381 46.32381 0 0 1 31.98781 33.499428 45.348571 45.348571 0 0 1-13.653333 44.032 47.494095 47.494095 0 0 1-45.494857 10.337524c-133.851429-39.838476-219.526095-46.275048-338.846477-22.381714l-22.771809 4.87619-27.696762 6.436572c-122.197333 30.134857-236.007619 30.037333-340.894476-0.536381a45.83619 45.83619 0 0 1-31.597715-57.246476 47.006476 47.006476 0 0 1 58.221715-30.768762c82.115048 23.893333 171.495619 25.502476 268.921904 4.632381l48.128-11.166476c150.918095-34.133333 255.658667-28.672 413.744762 18.285714z m46.518858-610.157714c-37.888 51.833905-116.931048 114.93181-198.89981 160.231619l-27.355428 14.774857c-5.705143 3.218286-10.727619 6.339048-14.969905 9.313524l-4.388572 3.169523 3.559619 2.048c12.336762 6.485333 31.353905 13.702095 55.393524 20.870096l12.434286 3.559619 13.263238 3.559619 15.11619 3.705905c23.893333 5.36381 39.399619 28.623238 35.108572 52.857904-19.358476 102.936381-111.323429 156.330667-267.215238 159.939048l-16.920381 0.146286-24.673524 0.536381c-121.61219 5.168762-228.059429 48.420571-321.29219 130.535619a47.542857 47.542857 0 0 1-55.247239 5.217523 45.494857 45.494857 0 0 1-21.455238-50.468571c104.155429-409.6 330.313143-636.830476 673.499429-674.620952l19.943619-1.950477c136.630857-9.411048 193.097143 62.171429 124.099048 156.574477z" p-id="6027" fill="#ffffff"></path></svg>