<svg width="14" height="17" viewBox="0 0 14 17" fill="none" xmlns="http://www.w3.org/2000/svg"><path d="M6.96 16.64a1.47 1.47 0 0 1-1.04-.43c-.14-.14-.24-.3-.32-.48a1.55 1.55 0 0 1-.11-.56L5.46 2.63h2.93l.03 12.54c0 .19-.04.38-.11.56-.07.18-.18.34-.32.48-.14.14-.3.24-.47.32-.18.07-.37.11-.56.11z" fill="currentColor"></path><path d="M.39 7.76c-.14-.14-.24-.3-.33-.48-.06-.18-.1-.37-.1-.56 0-.2.04-.39.1-.57.09-.18.19-.34.33-.47L5.41.63c.2-.2.44-.36.71-.47a2.112 2.112 0 0 1 1.66 0c.26.11.5.27.7.47l5.02 5.05c.14.13.24.29.31.47a1.388 1.388 0 0 1 0 1.13c-.07.18-.17.34-.31.48-.14.14-.31.24-.48.32-.18.07-.36.11-.56.11-.19 0-.39-.04-.56-.11a1.4 1.4 0 0 1-.47-.32L6.94 3.25 2.46 7.76c-.14.14-.29.24-.47.32-.18.07-.37.11-.56.11-.2 0-.38-.04-.56-.11C.68 8 .53 7.9.39 7.76z" fill="currentColor"></path></svg>